<svg version="1.1" id="Livello_1" xmlns="http://www.w3.org/2000/svg" x="0" y="0" viewBox="0 0 358.7 156.8" xml:space="preserve"><path d="M220.5 27.4c4.1 3.7 9.1 5.4 14.4 6.6 5.4 1.2 16.9 4.1 28.4 9.1 11.5 4.9 18.1 4.9 25.1 5.8 7 .8 13.2.8 19-2.1 5.8-2.9 10.7-5.4 22.3-7.8 3.1-.7 7.1-2.3 11.2-4.3-2-7.5-7.8-9.6-11.9-4.9-.8.9-2.2.9-2.9 0l-13.8-16.5c-5.2-6.5-8.5-7-13.7-2.4l-7.6 9.2c-.5.5-1.3.9-2.1-.1-7.1-8.5-11.1-5.4-17.2 2l-2.3 2.8c-.6.6-1.1 1.4-1.7 2-.9 1-2.4.9-3.2-.2L247.4 5.9c-6.3-8-10.1-6.9-14.7-1.4l-8.4 10.1c-.8 1-1.8 1-2.7-.1-7.8-10.1-13.5-2.3-16.8 4.3v.1s0-.1.1-.1c7.4-1.3 11.9 5.2 15.6 8.6z" fill="#fbb92f"/><path class="st1" fill="#74c4b6" d="M307.5 46.8c-5.8 2.9-12 2.9-19 2.1-7-.8-13.6-.8-25.1-5.8-11.5-4.9-23.1-7.8-28.4-9.1-5.4-1.2-10.3-2.9-14.4-6.6-3.8-3.4-8.2-9.9-15.6-8.7-3.8 8-6.2 16.9-6.8 26.3-1.6 24.7 9.4 47.4 27.6 61.6 4-1.1 7.3-2.2 8.9-3 6.2-3.3 10.3-9.9 4.9-16.1-5.4-6.2-7-6.3-9.2-8.2-2.9-2.6-1.4-2.4 1-3.2 2.5-.8 4.5-1.8 4.1-4s5.3-4.7 11.9-4.7c6.6 0 15.8 1.6 19.7 0 3.8-1.6 3.5-4.9 3.3-7-.3-2.1 1.4-4.5 9.2-4.9 7.8-.4 19.8 0 19.8 0s-.8 4.9 4.9 5.4c4 .3 10.1.4 13.5.4 1.3 0 2.5.8 3 2 .7 1.3 2.3 2.9 6.1 3.4 4.1.5 8.7 3.7 11.9 6.3 2-5.8 3.2-12 3.6-18.4.4-6.8-.1-13.4-1.4-19.7-4.1 2-8.1 3.6-11.2 4.3-11.6 2.2-16.5 4.7-22.3 7.6z"/><path class="st2" fill="#cae8fb" d="M340 68.9c-.1.2-.1.4-.2.6.1-.2.1-.4.2-.6zM225.6 106.6c-.4-.3-.7-.6-1.1-.9.4.3.8.6 1.1.9zM223.2 104.6c.2.2.3.3.5.4-.2-.1-.4-.3-.5-.4zM340.9 65.2c0-.1 0-.2.1-.3-.1.2-.1.2-.1.3zM326.9 66.5c-3.9-.5-5.5-2.1-6.1-3.4-.6-1.2-1.7-2-3-2-3.4 0-9.5-.1-13.5-.4-5.8-.4-4.9-5.4-4.9-5.4s-12-.4-19.8 0c-7.8.4-9.5 2.9-9.2 4.9.3 2.1.6 5.4-3.3 7-3.8 1.6-13.1 0-19.7 0s-12.3 2.5-11.9 4.7c.4 2.2-1.6 3.2-4.1 4s-3.9.6-1 3.2c2.2 2 3.8 2.1 9.2 8.2 5.4 6.2 1.2 12.8-4.9 16.1-1.6.9-4.9 1.9-8.9 3 11.1 8.7 24.8 14.3 39.9 15.3 11.3.7 22.2-1.2 32-5.2-.4-1.1-1-2.3-2-3.4-5.4-6.2-11.4-6.3-13.6-8.2-2.9-2.6 3-2.4 5.5-3.2s4.5-1.8 4.1-4S297 93 303.6 93s15.8 1.6 19.7 0c3.8-1.6 3.5-4.9 3.3-7-.3-2 1.4-4.5 9.1-4.9 1.3-2.7 2.4-5.5 3.4-8.4-3.5-2.5-8.1-5.7-12.2-6.2z"/><path class="st1" fill="#74c4b6" d="M302.3 63.2c-2.6 0-4.9 1.5-6.3 3.6 0 0 0 .1-.1.1-.9 1.2-3.1 3.7-5.9 5.3-2.8 1.5-5.7 4.6-5.5 6.5s6.9 1.6 16.8 1 14.3-1 12.7-4.7c-1.5-3.7-5.9-13.4-8.7-12.3-.7.3-1.8.5-3 .5z"/><path d="M227.2 109.9l19.8 8.9c2.8 0 5.5-.9 8.1-2.7 2.5-1.7 4.9-3.7 7.2-6.1 2.3-2.4 4.4-4.9 6.3-7.6 1.2-1.6 1.9-2.7 2.6-3.8.4-.7.4-.6.9-1.4.3-.5.5-.8.7-1 .3-.5.4-.6.9-1.4.7-1.1 1.2-1.9 1.7-2.5l.2-.3v-.4c0-1.2-.5-1.9-1-2.2-.5-.4-.8-.5-1.3-.6-.4 0-.4.1-.8.6 0 0-1 1.4-1.9 2.6-.4.5-2.5 3.7-4.8 6.5-1.1 1.3-2.4 2.3-3.2 3.2-2.5 2.6-5.2 4.8-7.8 6.6-2.6 1.7-4.6 2.5-7.8 2.2-.9-.1-1.2-.4-1.4-.7-.3-.5-.5-1.3-.5-2.2 0-1 0-1.2.3-2.6.2-.9.5-1.8.8-2.8 1 .7 2.2 1 3.7 1s3-.5 4.5-1.6c1.4-1 2.7-2.2 3.9-3.5 1.2-1.3 2.3-2.8 3.2-4.3s1.7-2.9 2.2-4.2l.1-.2v-.3c.2-.4.3-.9.4-1.3.1-.4.2-.8.4-1.3l.1-.2c.5-2.8 0-5.3-1.7-7.5-1.7-2.1-3.8-3.2-6.4-3.2-2 0-3.9.6-5.7 1.9-2.3 1.6-4.7 4-7 7-.4.5-.8 1-1.2 1.6.1-.5.3-1 .4-1.6.4-1.7.6-3.4.6-5.1 0-2-.3-3.7-1-5.1-1-2.1-2.8-4-5.2-5.8-1.6-1.2-2.7-1.7-3.5-1.7-1.1.1-1.6.9-2 1.7-.1.2-.3.5-.5.9-1.1 1.9-2.3 3.9-3.4 6-.7 1.2-1.3 2.4-1.9 3.6-1-2-2.6-3.6-4.8-4.8-1.1-.5-2.2-.7-3.2-.7-2.2 0-4.3.7-6.2 2.2-1.7 1.2-3.2 2.7-4.4 4.3-1 .1-1.9.4-2.6.9-.1.1-.2.2-.3.2-.7.6-3.3-7-3.1-7.4 1.9-3.9 3.7-7.4 5.4-10.5 1.9-3.3 3.3-5.5 4.3-6.5.4-.4.8-1.2.5-2.4-.2-.8-.7-1.6-1.5-2.3-.7-.6-1.5-1.1-2.4-1.5-1-.5-2.1-.7-3.2-.7-1.9 0-3.3.5-4.2 1.4-.8.8-1.8 2.3-2.5 3.7l-.2 23.8 29.4 31.2z" fill="#fff"/><g><path class="st4" fill="#e83f5b" d="M59.5 80.6c.4-.8.1-1.8-.7-2.2L18.5 57.9c-.8-.4-1.8-.1-2.2.7-.4.8-.1 1.8.7 2.2l40.4 20.5c.7.4 1.7.1 2.1-.7zM63.4 92.2L32.1 76.3c-.8-.4-1.8-.1-2.2.7-.4.8-.1 1.8.7 2.2l31.3 15.9c.8.4 1.8.1 2.2-.7.4-.9.1-1.8-.7-2.2zM274 89.1c-.3-.2-.6-.3-.8-.3-.2 0-.3 0-.4.1-1.3 1.9-3 4.1-4.9 6.6-2 2.5-4.1 4.9-6.4 7.2-2.3 2.3-4.8 4.3-7.3 5.9s-5 2.4-7.4 2.4c-1-.1-1.7-.4-2.1-1.1-.4-.6-.6-1.4-.6-2.4s.2-2.1.5-3.3c.4-1.2.8-2.5 1.3-3.9.8 1.1 2.1 1.6 3.9 1.6 1.2 0 2.3-.4 3.5-1.2 1.2-.8 2.3-1.7 3.4-2.9 1.1-1.1 2-2.3 2.9-3.5.8-1.2 1.5-2.4 1.9-3.5v-.3c.2-.4.3-.7.4-1.1s.2-.8.4-1.3c.4-2.1 0-4-1.3-5.6-1.3-1.6-3-2.4-5.1-2.4-1.6 0-3.1.5-4.7 1.5-2 1.3-4.1 3.3-6.2 5.8-2.1 2.5-3.8 5.3-5.1 8.2-1.3 2.9-1.9 5.9-2 8.8 0 3 .9 5.7 2.9 8 1.3 1.9 3.4 2.8 6.1 2.8 2.4 0 4.7-.7 7-2.1 2.3-1.4 4.4-3.1 6.4-5.1s3.9-4.1 5.7-6.4c1.7-2.3 3.2-4.2 4.5-5.9.9-1.2 1.6-2.3 2.3-3.3.6-1 1.3-1.9 1.7-2.4 0-.5-.2-.7-.5-.9zm-24.3 4.3c1-1.5 2-2.8 3.1-3.9 1-1.2 2-2.1 2.9-2.8.9-.7 1.6-1.1 2.3-1.1.5 0 .9.2 1.2.5.2.5.1 1.4-.1 2.5-.5 1.2-1.2 2.3-2.1 3.6-.9 1.2-1.9 2.3-2.9 3.3-1.1 1-2.1 1.8-3.1 2.4s-1.8.9-2.5.9c-.6 0-1.1-.3-1.3-.9.6-1.5 1.5-3.1 2.5-4.5z"/></g><path class="st4" fill="#e83f5b" d="M240.7 78c-.9-1.7-2.4-3.3-4.6-4.9 0 0-1.9-1.4-2.6-1.3-.7 0-.8.6-1.5 1.9-1.1 1.7-2.1 3.5-3.2 5.4-1.1 1.9-2.1 3.8-3.1 5.6-1 1.8-.2.4-1.1 2-.1-1.2-.4-2.4-.9-3.4-.8-1.8-2.1-3.1-4.1-4.1-.9-.4-1.7-.5-2.5-.5-1.8 0-3.5.6-5.1 1.7-1.6 1.2-3 2.5-4.1 4-1 0-1.8.2-2.3.6-.6.4-1.1 1.1-1.7 2.1-.9 1.3-1.8 2.9-2.7 4.7-.5.9-.9 1.9-1.3 2.9 0 .1-.1.1-.1.2-1.3 1.7-2.7 3.5-4.1 5.4-1.5 1.9-2.9 3.6-4.2 5.2s-2.5 2.9-3.6 3.9-1.8 1.5-2.3 1.5c-.7 0-.8-1.2-.3-3.5s1.5-5.3 2.9-8.8c1.4-3.6 3-7.5 4.9-11.8s3.7-8.4 5.7-12.3c1.9-3.9 3.7-7.4 5.5-10.4 1.7-3 3.1-5 4.1-6 .3-.3.3-.7.2-1.2s-.5-1-1-1.5c-.5-.4-1.2-.8-1.9-1.2-.8-.4-1.6-.5-2.5-.5-1.4 0-2.4.3-3.1.9-.6.6-1.2 1.5-1.9 2.7-1.9 3.5-4 7.7-6.5 12.7s-4.8 10.2-7 15.5c-.2-1.7-.8-3.2-1.8-4.5s-2.4-2-4.2-2c-2.2 0-4.4 1.2-6.6 3.5-2.2 2.3-4.1 5.2-5.8 8.5-1 2-1.9 4-2.6 6.1-1.1 1.4-2.2 2.7-3.3 3.8-1.2 1.2-2.2 2.3-3.2 3.1-1 .8-1.7 1.3-2.3 1.3-.3 0-.5-.1-.8-.4-.3-.8-.1-2.2.5-4.3.2-.8.4-1.7.7-2.8.3-1.1.6-2.1 1-3.2s.9-2.1 1.5-3 1.2-1.7 1.8-2.2c.5-.4.8-.6.8-.8 0-.2-.2-.5-.7-.9-1.2-1.5-2.6-2.3-4.1-2.3-.4 0-1 .1-1.7.4.5-1.9.8-3.9.9-5.9.1-2-.6-3.8-2.1-5.4-.4-.4-.9-.8-1.5-1.1-.5-.3-1.2-.5-1.9-.5-1.4 0-3.1.8-4.9 2.4-1.3 1.1-2.8 2.6-4.4 4.7-1.6 2.1-3.1 4.4-4.7 7-1.5 2.6-2.9 5.2-4.1 8-.7 1.7-1.3 3.4-1.8 5-1.5 1.5-3.1 3.1-4.9 4.8-2 1.9-4.2 3.6-6.4 5.1-2.3 1.5-4.6 2.8-7 3.8s-4.9 1.5-7.2 1.5c-3.8 0-6.7-1.4-8.6-4.1-2.3-3.3-3.3-7.2-3.1-11.8-.1-4.6 1-9.4 3-14.4 1.9-5 4.6-10 7.8-14.9 3.3-4.9 6.8-9.3 10.6-13.2 3.8-3.9 7.6-7.1 11.4-9.5 3.8-2.4 7.2-3.7 10.2-3.7h.9c1.7.2 2.6 1.1 2.7 2.9.1 1.7-.2 3.9-1.1 6.4-.9 2.5-2.1 5.3-3.8 8.2-1.6 3-3.4 5.8-5.3 8.4-1.9 2.6-3.8 4.9-5.6 6.8-1.9 1.9-3.5 3-4.9 3.4-.2.1-.2.2.1.4.2.2.6.3 1.1.3.7 0 1.6-.2 2.7-.5 1.1-.4 2.4-1.2 3.9-2.4 2.1-1.5 4.3-3.5 6.4-6 2.1-2.5 4-5.2 5.7-8 1.7-2.9 3-5.8 4.1-8.9 1-3.1 1.4-5.9 1.3-8.6-.2-3.2-1.2-5.3-3-6.4-1.8-1.1-4.1-1.6-6.8-1.6-4 0-8.1 1.1-12.3 3.3-4.2 2.2-8.3 5.1-12.2 8.8-2.6 2.4-5.1 5.1-7.4 8.1 1.8-14.2-5.8-28.5-19.6-34.5l-42-18.3c-.6-.3-1.3-.3-1.9 0-.6.3-1.1.7-1.4 1.3-2.2 5-2.1 10.5-.2 15.3.9 2.4 2.3 4.6 4.1 6.5-1.3 3.6-1.3 7.5.1 11.1.7 1.7 1.7 3.3 2.9 4.7-1.1 3.2-1.1 6.7.2 9.9 1.4 3.5 4.1 6.3 7.6 7.8l14.6 6.3c1.8.8 3.4 1.8 4.9 2.9 0 0 .5.3 1.2 1 3 2.7 5.4 6 6.9 9.6 2.3 4.6 4.4 10.9 5.2 19.3l.1-.2c0 .9.1 1.8.1 2.6.4 3.9 1.4 7.2 3.2 10 1.8 2.8 4.3 4.8 7.7 6 .8.2 1.6.4 2.4.5.8.2 1.7.3 2.7.3 2.8 0 5.8-.6 8.8-1.9s5.9-2.9 8.7-4.9c2.8-1.9 5.4-4.1 7.8-6.4.9-.8 1.7-1.7 2.5-2.5-.2 1.7-.1 3.2.2 4.6.4 1.9 1.5 3.3 3.3 4.1.4.2.8.3 1.1.5.3.1.6.2 1.1.2.2 0 .3 0 .4-.1.1 0 .2-.1.4-.1.9-.4 1.8-1.2 2.9-2.3 1-1.1 2.1-2.3 3.1-3.9 1.1-1.5 2.1-3.1 3.3-4.9 1.1-1.7 2.1-3.4 3.1-5 0 .3 0 .5-.1.8-.3 1.8-.4 3.7-.3 5.7 0 2 .7 3.6 2.1 4.9.9.9 1.9 1.3 2.9 1.3 1.8 0 3.7-.9 5.9-2.8 1.4-1.2 2.7-2.5 4-4-.6 2.8-.8 5.2-.5 7.3.1 1.3.6 2.6 1.4 3.8.8 1.2 1.9 1.8 3.3 1.8.6 0 1.1 0 1.3-.1.9-.4 1.9-1.3 3.2-2.7 1.2-1.5 2.5-3.1 3.7-5.1 1.2-1.9 2.5-3.8 3.7-5.7 1.2-1.9 2.1-3.5 2.9-4.9-.9 2.6-1.5 5-1.8 7.2s-.2 4.3.2 6.4c.4 1.2.8 2.1 1.5 2.8.6.7 1.2 1.2 1.9 1.5.5.2.9.3 1.1.3 1.3 0 3-.9 4.9-2.7 1.9-1.8 3.9-3.9 5.9-6.3 1.2-1.5 2.4-3 3.5-4.5 0 .2-.1.4-.1.6-.4 1.9-.4 3.8-.3 5.5.2 2 .9 3.8 2.2 5.3s3 2.2 5.3 2.2c1.9 0 3.8-.6 5.8-1.9 2-1.2 3.9-2.9 5.6-4.9 1.7-2 3.3-4.3 4.7-6.8s2.4-5 3.1-7.5c0 0 .1-.4.3-.9 1.4-3.2 1.9-4.2 3.6-7.2 1.7-3 3.9-6.6 6.8-10.9.5.7.8 1.2.9 1.5.5 1 .6 2.3.1 4.1-.5 1.7-1.2 3.7-2.3 5.8-1 2.1-2.2 4.4-3.5 6.8s-2.6 4.9-3.8 7.2c-.9 1.7-3 6.8-3 6.8-.8 2.2-1.2 4.1-1.2 5.8.1 2.2.6 4.1 1.6 5.7 1 1.5 2.3 2.3 3.9 2.3.3 0 .4-.1.5-.3.1-.2 0-.3-.1-.4-.4-.2-.5-.4-.5-.7-.2-1.2.3-3.2 1.4-5.9 1.1-2.7 2.4-5.6 4-8.6l1.6-3.1c1.3-2.5 2.5-4.9 3.6-7.1s1.9-4 2.3-5.3c.5-1.2 1-2.6 1.3-4.1.4-1.5.5-2.9.5-4.4-.7-1.6-.9-3-1.5-4.3zM89.8 76.7l-3.7 8.6-.5-3c-1.7-9.1-7.7-16.7-16.1-20.3l-14.2-6.2c-4-1.7-6.4-5.9-5.8-10.3l.2-1.2 21.8 9.5c.7.3 1.6 0 2-.8.3-.7 0-1.6-.8-2l-19.6-8.5c-2.7-1.2-4.8-3.3-5.9-6.1-.7-1.9-1-4-.6-5.9l.2-1.1L70 39.5c.7.2 1.5-.1 1.8-.8.3-.7 0-1.5-.6-1.9h-.1l-19.9-8.6c-6.8-3-10.5-10.4-8.7-17.6l.3-1.1 38.8 16.9c14 6.1 20.5 22.5 14.4 36.5l-5 11c-.4 1-.8 1.9-1.2 2.8zm62 10.4c-.6.4-1.1 1-1.5 1.6s-.7 1.3-1.1 2c-1.2 1.7-2.5 3.5-3.9 5.6-1.3 2-2.6 3.9-3.8 5.7-1.2 1.7-2.3 3.2-3.3 4.3-1 1.2-1.7 1.7-2.3 1.7-.4-.4-.3-1.7.5-3.9s1.8-4.7 3.1-7.4c1.3-2.8 2.8-5.5 4.4-8.2 1.6-2.7 3.1-4.8 4.4-6.2 1.2-1.1 2.1-1.6 2.5-1.6 1.3-.2 1.5 2 1 6.4zm30.6 4.3c-.1.3-.3.8-.6 1.4-1.1 1.8-2.3 3.7-3.7 5.9-1.4 2.1-2.8 4.1-4.1 6s-2.5 3.4-3.6 4.7c-1.1 1.2-1.9 1.9-2.4 1.9-.4 0-.6-.6-.5-1.7.2-1.5.8-3.6 1.8-6.4 1-2.7 2.2-5.5 3.5-8.1 1.3-2.7 2.7-5 4.1-6.9 1.4-1.9 2.6-2.9 3.6-2.9.5 0 1 .2 1.3.6s.6.9.7 1.4c.2.5.3 1.1.3 1.7s.1 1 .1 1.3c-.2.3-.3.8-.5 1.1zm37.6.8c-.4 1.3-.7 2.1-2.3 5.2s-2.6 4.8-2.6 4.8l-1.8 2.7c-.8 1.2-1.8 2.3-2.8 3.4s-2.1 2.1-3.1 2.9c-1.1.8-2 1.3-2.8 1.3-1 0-1.5-.6-1.6-1.9-.1-.7 0-1.5.2-2.5s.5-1.9.9-2.9.7-1.9 1-2.7c.3-.8.6-1.4.7-1.7.8-1.7 1.8-3.7 3-6.1s2.3-4.3 3.4-5.8c.3-.3.6-.6.9-1 .4-.4.4-.8.3-1.3-.1-.3-.3-.5-.6-.7s-.6-.4-1-.5v-.3c1.5-2.2 3.2-3.3 5.1-3.3.6 0 1.3.2 2 .7 1.2 1 1.9 2.3 2.1 4.1 0 1.6-.3 3.5-1 5.6z"/><g><path class="st1" fill="#74c4b6" d="M86.6 140.4h6.9c1.7 0 3.2.3 4.6 1 1.3.7 2.4 1.6 3.1 2.9.7 1.2 1.1 2.6 1.1 4.2s-.4 3-1.1 4.2-1.8 2.2-3.1 2.9c-1.3.7-2.9 1-4.6 1h-6.9v-16.2zm6.7 14.3c1.3 0 2.5-.3 3.5-.8s1.8-1.2 2.3-2.2c.5-.9.8-2 .8-3.2s-.3-2.3-.8-3.2-1.3-1.6-2.3-2.2c-1-.5-2.2-.8-3.5-.8h-4.4v12.2h4.4v.2zM126.9 154.7v2H115v-16.3h11.5v2h-9.2v5h8.2v2h-8.2v5.3h9.6zM139.8 140.4h2.3v14.3h8.8v2h-11.1v-16.3zM162.9 140.4h2.3v16.3h-2.3v-16.3zM193.3 140.4l-7.1 16.3h-2.3l-7.2-16.3h2.5l5.9 13.4 5.9-13.4h2.3zM216.4 154.7v2h-11.8v-16.3h11.5v2h-9.2v5h8.2v2h-8.2v5.3h9.5zM240.3 156.7l-3.5-5h-5v5h-2.3v-16.3h6.4c2.1 0 3.8.5 5 1.5s1.8 2.4 1.8 4.2c0 1.3-.3 2.3-.9 3.2-.6.9-1.5 1.5-2.7 1.9l3.9 5.5h-2.7zm-1.3-7.9c.8-.6 1.2-1.5 1.2-2.7s-.4-2.1-1.2-2.7-1.9-.9-3.4-.9h-4v7.3h4c1.5 0 2.6-.3 3.4-1zM261.5 151.1v5.6h-2.3V151l-6.5-10.6h2.5l5.2 8.6 5.2-8.6h2.3l-6.4 10.7z"/></g></svg>