<svg version="1.1" id="Livello_1" xmlns="http://www.w3.org/2000/svg" x="0" y="0" viewBox="0 0 640 243.3" xml:space="preserve"><path class="st0" fill="#74c3b5" d="M316.4 163.3l-37 18.8h-.1c-12-9.4-19-3.8-32.3 10l-13.5 13.3c-.9.5-2 .2-2.6-.6l-39.6-47.6c-14.5-18.4-23.2-15.9-33.6-3.3l-18.8 23.2c-1.7 2-3.7 2.1-5.5.4l-2.4-2.9c-.2-.2-.4-.4-.6-.5-10.8-11.8-20.2-11.4-27.7-6.2-4.5 2.7-9.3 7.4-14.8 14.3l-43.4 52c-2.4 2.9-6.8 2.9-9.2 0C23.7 220.9 7.7 225 0 243.3h640V0L316.4 163.3z"/><path class="st0" fill="#74c3b5" d="M316.4 163.3l-37 18.8h-.1c-12-9.4-19-3.8-32.3 10l-13.5 13.3c-.9.5-2 .2-2.6-.6l-39.6-47.6c-14.5-18.4-23.2-15.9-33.6-3.3l-18.8 23.2c-1.7 2-3.7 2.1-5.5.4l-2.4-2.9c-.2-.2-.4-.4-.6-.5-10.8-11.8-20.2-11.4-27.7-6.2-4.5 2.7-9.3 7.4-14.8 14.3l-43.4 52c-2.4 2.9-6.8 2.9-9.2 0C23.7 220.9 7.7 225 0 243.3h640V0L316.4 163.3z"/><path fill="#fbb92f" d="M640 125.7v117.6H407.9z"/></svg>